PathFileType	4	(X/Y/Z)	/Users/itak/Documents/Research/Walk-IL/dataset/trc/00543_00009.trc
DataRate	CameraRate	NumFrames	NumMarkers	Units	OrigDataRate	OrigDataStartFrame	OrigNumFrames
100.000000	100.000000	4	53	mm	100.000000	185	741
Frame#	Time	RPSI			LPSI			L3			STRN			T10			C7			CLAV			RBAK			LBAK			LSHO			LUPA			LAEL			LAOL			LWTS			LWPS			LFRA			LIFD			LHPS			LHTS			RSHO			RUPA			RAEL			RAOL			RWTS			RWPS			RFRA			RIFD			RHTS			RHPS			RBHD			LFHD			RFHD			LBHD			LHIP			RHIP			RASI			LASI			LKNE			LTHI			LANK			LTIP			LTOE			LMT1			LMT5			LHEE			RKNE			RTHI			RANK			RTIP			RTOE			RMT1			RMT5			RHEE			
		X1	Y1	Z1	X2	Y2	Z2	X3	Y3	Z3	X4	Y4	Z4	X5	Y5	Z5	X6	Y6	Z6	X7	Y7	Z7	X8	Y8	Z8	X9	Y9	Z9	X10	Y10	Z10	X11	Y11	Z11	X12	Y12	Z12	X13	Y13	Z13	X14	Y14	Z14	X15	Y15	Z15	X16	Y16	Z16	X17	Y17	Z17	X18	Y18	Z18	X19	Y19	Z19	X20	Y20	Z20	X21	Y21	Z21	X22	Y22	Z22	X23	Y23	Z23	X24	Y24	Z24	X25	Y25	Z25	X26	Y26	Z26	X27	Y27	Z27	X28	Y28	Z28	X29	Y29	Z29	X30	Y30	Z30	X31	Y31	Z31	X32	Y32	Z32	X33	Y33	Z33	X34	Y34	Z34	X35	Y35	Z35	X36	Y36	Z36	X37	Y37	Z37	X38	Y38	Z38	X39	Y39	Z39	X40	Y40	Z40	X41	Y41	Z41	X42	Y42	Z42	X43	Y43	Z43	X44	Y44	Z44	X45	Y45	Z45	X46	Y46	Z46	X47	Y47	Z47	X48	Y48	Z48	X49	Y49	Z49	X50	Y50	Z50	X51	Y51	Z51	X52	Y52	Z52	X53	Y53	Z53	

186	1.85	-866.6517944335938	1013.791320800781	198.3466644287109	-854.4771118164062	1013.39306640625	65.34952545166016	-855.2883911132812	1116.480224609375	122.6557922363281	-608.0862426757812	1300.14501953125	130.1732330322266	-858.3992919921875	1240.42236328125	117.4493560791016	-802.5238647460938	1511.630859375	131.0060882568359	-621.7341918945312	1414.2373046875	131.5031890869141	-876.7314453125	1391.228271484375	217.7363891601562	-830.9085083007812	1459.878784179688	33.9316291809082	-723.188232421875	1485.362915039062	-36.31991958618164	-714.0556640625	1362.317504882812	-121.390625	-665.6168212890625	1141.546142578125	-140.1620025634766	-763.3369750976562	1126.344116210938	-119.3686904907227	-577.3474731445312	901.3790283203125	-70.29751586914062	-594.7620239257812	878.7137451171875	-152.4246978759766	-635.8004760742188	1056.42431640625	-140.847900390625	-568.446044921875	731.250244140625	-76.43117523193359	-585.6337280273438	819.1034545898438	-142.7336273193359	-550.75537109375	826.010986328125	-84.64102172851562	-747.4578857421875	1482.628051757812	290.0550537109375	-769.4453735351562	1421.622436523438	360.0056762695312	-786.60009765625	1134.626953125	418.11279296875	-841.3529663085938	1118.746826171875	390.6733093261719	-659.4637451171875	907.8531494140625	385.0178527832031	-707.2330322265625	891.4130859375	452.981689453125	-777.1005859375	1079.5283203125	428.0426330566406	-653.344482421875	734.0057373046875	401.8282470703125	-635.896728515625	816.635986328125	405.9577331542969	-693.0562133789062	816.42578125	454.0717163085938	-743.0905151367188	1677.725708007812	205.5099792480469	-592.3886108398438	1719.638793945312	68.33393096923828	-607.9021606445312	1717.33740234375	211.4551849365234	-717.5414428710938	1679.826904296875	41.41045761108398	-735.6715087890625	937.1571044921875	-64.29522705078125	-743.9037475585938	956.3192749023438	330.6401977539062	-658.664306640625	982.4490356445312	268.6455383300781	-647.0796508789062	957.7764282226562	-5.010626792907715	-737.6785888671875	487.6353759765625	30.63251876831055	-720.0845336914062	649.0223999023438	-14.94153022766113	-842.9299926757812	30.62800788879395	75.22916412353516	-816.3284301757812	245.4939117431641	46.23983001708984	-638.6312255859375	38.38718795776367	149.1545562744141	-712.7139892578125	42.11875534057617	178.0582733154297	-719.8310546875	33.27500152587891	68.41548919677734	-915.7344970703125	35.05839538574219	124.1461944580078	-603.4608764648438	528.1414794921875	324.7132263183594	-674.1813354492188	811.4596557617188	338.0931701660156	-645.32421875	48.15218734741211	345.1705932617188	-586.4805908203125	381.2457275390625	326.5677795410156	-430.4474182128906	79.87128448486328	316.7650146484375	-489.1501159667969	66.56986999511719	271.8159790039062	-517.6517944335938	60.84175491333008	372.0848083496094	-695.6630249023438	32.66959381103516	287.8659973144531	
187	1.86	-864.8264770507812	1013.446166992188	198.6250610351562	-852.6316528320312	1013.1376953125	65.62530517578125	-853.4756469726562	1116.248168945312	122.9616622924805	-606.1675415039062	1299.973388671875	130.6349639892578	-856.5357055664062	1240.154907226562	117.6875915527344	-800.6953735351562	1511.393920898438	131.2229309082031	-619.845458984375	1414.070434570312	131.8912200927734	-874.913818359375	1391.019165039062	218.0027465820312	-829.0322265625	1459.593017578125	34.15090560913086	-721.244384765625	1485.066650390625	-36.0257453918457	-711.9692993164062	1362.03955078125	-121.0812454223633	-663.21044921875	1141.322509765625	-139.8115539550781	-760.909423828125	1125.96240234375	-119.1329498291016	-574.5091552734375	901.4072875976562	-69.74411010742188	-591.8275146484375	878.5982055664062	-151.8536529541016	-633.2194213867188	1056.256469726562	-140.4428863525391	-565.2846069335938	731.237548828125	-75.66022491455078	-582.5632934570312	819.0184326171875	-142.1419067382812	-547.7350463867188	826.0750732421875	-84.01015472412109	-745.6533203125	1482.481079101562	290.3682556152344	-767.6876831054688	1421.49609375	360.3555908203125	-785.212646484375	1134.444580078125	418.1965637207031	-840.0025024414062	1118.692626953125	390.6903381347656	-658.5979614257812	907.322998046875	385.1117248535156	-706.593505859375	890.9728393554688	453.1093444824219	-775.7911987304688	1079.32177734375	428.0579528808594	-653.2116088867188	733.403076171875	401.8884887695312	-635.4327392578125	815.949462890625	405.9668273925781	-692.6719360351562	815.9187622070312	454.1573791503906	-741.38232421875	1677.46435546875	205.7181701660156	-590.7507934570312	1719.412353515625	68.46504974365234	-606.26171875	1717.093505859375	211.6356506347656	-715.903564453125	1679.51171875	41.60042572021484	-735.5491943359375	938.0409545898438	-64.9293212890625	-742.27197265625	956.0562744140625	331.1410522460938	-656.833740234375	982.1791381835938	268.9237365722656	-645.221923828125	957.570068359375	-4.724010467529297	-736.6893920898438	487.5536193847656	30.78520774841309	-719.0593872070312	649.103759765625	-14.89590549468994	-842.9344482421875	30.66617393493652	75.27378845214844	-815.8302612304688	245.4051361083984	46.30708694458008	-638.6085815429688	38.37845611572266	149.1684417724609	-712.7317504882812	42.07772445678711	178.1033325195312	-719.8551635742188	33.26382827758789	68.43595886230469	-915.739501953125	35.09391784667969	124.1512756347656	-599.7591552734375	528.5113525390625	324.7330322265625	-671.9205322265625	811.4276123046875	338.4518737792969	-636.52392578125	48.02459716796875	344.877197265625	-581.3373413085938	381.84814453125	326.5047607421875	-421.9626159667969	81.47401428222656	316.3797912597656	-480.6321716308594	67.82881164550781	271.4312438964844	-508.9040832519531	61.50519180297852	371.6534423828125	-686.7761840820312	32.33737564086914	287.54541015625	
188	1.87	-862.9560546875	1013.094177246094	198.9430084228516	-850.738525390625	1012.878845214844	65.933349609375	-851.6216430664062	1116.015258789062	123.3041610717773	-604.1927490234375	1299.797119140625	131.1308441162109	-854.6251831054688	1239.888916015625	117.9614181518555	-798.8135986328125	1511.153564453125	131.4877471923828	-617.90966796875	1413.888061523438	132.3154907226562	-873.0399169921875	1390.806396484375	218.3057250976562	-827.1080322265625	1459.305786132812	34.41549301147461	-719.2399291992188	1484.7724609375	-35.69156265258789	-709.82958984375	1361.765258789062	-120.7372589111328	-660.8003540039062	1141.096435546875	-139.4305114746094	-758.4798583984375	1125.594970703125	-118.8760757446289	-571.7242431640625	901.408935546875	-69.17193603515625	-588.9491577148438	878.4671630859375	-151.2670288085938	-630.646484375	1056.078857421875	-140.0117797851562	-562.16796875	731.2322387695312	-74.91476440429688	-579.5655517578125	818.9122924804688	-141.5319366455078	-544.7804565429688	826.1070556640625	-83.36572265625	-743.800048828125	1482.325317382812	290.7089233398438	-765.8790893554688	1421.35546875	360.7456665039062	-783.7802734375	1134.25341796875	418.2806701660156	-838.606689453125	1118.618530273438	390.697265625	-657.7295532226562	906.7816772460938	385.2799682617188	-705.8898315429688	890.5262451171875	453.2413635253906	-774.44189453125	1079.097900390625	428.0712280273438	-653.004638671875	732.798095703125	401.9573974609375	-634.9085083007812	815.2610473632812	405.9888000488281	-692.2240600585938	815.4063110351562	454.2379455566406	-739.622802734375	1677.197509765625	205.964111328125	-589.0689086914062	1719.176635742188	68.63853454589844	-604.5845947265625	1716.84130859375	211.8506011962891	-714.2153930664062	1679.17919921875	41.82470703125	-734.4800415039062	938.35302734375	-65.07590484619141	-740.5684814453125	955.762939453125	331.6324157714844	-654.9628295898438	981.8953247070312	269.2305908203125	-643.3192749023438	957.3662109375	-4.394544124603271	-735.627685546875	487.4525146484375	30.93426513671875	-717.8840942382812	649.1378784179688	-14.7959566116333	-842.9390258789062	30.70649147033691	75.31918334960938	-815.3067016601562	245.3246459960938	46.36914443969727	-638.5853881835938	38.36679458618164	149.1838836669922	-712.7428588867188	42.04208374023438	178.140625	-719.8824462890625	33.25197219848633	68.45801544189453	-915.7428588867188	35.13685607910156	124.158447265625	-596.0167236328125	528.8772583007812	324.7471313476562	-669.60693359375	811.3800048828125	338.8021850585938	-627.8312377929688	47.95888900756836	344.5552978515625	-576.197021484375	382.4456176757812	326.429931640625	-413.6291809082031	83.25318145751953	316.0573425292969	-472.1943054199219	69.20762634277344	271.0909118652344	-500.29736328125	62.32177734375	371.2472229003906	-677.9591674804688	32.01364898681641	287.1792297363281	
189	1.88	-861.0382080078125	1012.735290527344	199.3017272949219	-848.7962646484375	1012.61767578125	66.27579498291016	-849.7200317382812	1115.777099609375	123.6781234741211	-602.1661376953125	1299.611450195312	131.6519927978516	-852.6683959960938	1239.627319335938	118.2740783691406	-796.8773193359375	1510.9111328125	131.8020324707031	-615.9283447265625	1413.690185546875	132.7753295898438	-871.1077270507812	1390.592895507812	218.6451110839844	-825.13232421875	1459.020385742188	34.72328186035156	-717.1759033203125	1484.481201171875	-35.31554412841797	-707.6356201171875	1361.493041992188	-120.357063293457	-658.3843994140625	1140.868774414062	-139.0166015625	-756.0501098632812	1125.242919921875	-118.5931549072266	-569.0070190429688	901.3612670898438	-68.57572937011719	-586.1273803710938	878.3230590820312	-150.6660003662109	-628.0844116210938	1055.890380859375	-139.5509643554688	-559.1085815429688	731.2274169921875	-74.19565582275391	-576.6436157226562	818.7861938476562	-140.9021606445312	-541.9036254882812	826.103515625	-82.70732879638672	-741.897216796875	1482.160278320312	291.0793762207031	-764.0172119140625	1421.199829101562	361.1718444824219	-782.30419921875	1134.049682617188	418.3663940429688	-837.1646118164062	1118.52099609375	390.6951599121094	-656.8526000976562	906.2335205078125	385.5293884277344	-705.1111450195312	890.0760498046875	453.3759155273438	-773.0624389648438	1078.853881835938	428.0872497558594	-652.7019653320312	732.1943969726562	402.0361328125	-634.32373046875	814.5756225585938	406.0390014648438	-691.6998901367188	814.8933715820312	454.3140869140625	-737.8106689453125	1676.925048828125	206.2489624023438	-587.34033203125	1718.928588867188	68.85499572753906	-602.8638916015625	1716.585083007812	212.0982055664062	-712.474365234375	1678.829467773438	42.08601379394531	-732.5311889648438	938.1296997070312	-64.76779937744141	-738.7740478515625	955.4469604492188	332.11083984375	-653.046875	981.6015014648438	269.5615234375	-641.36962890625	957.1624145507812	-4.026352882385254	-734.5033569335938	487.3316650390625	31.09003448486328	-716.5516357421875	649.1099243164062	-14.62550735473633	-842.9434814453125	30.74685478210449	75.36471557617188	-814.7625732421875	245.2604827880859	46.43973922729492	-638.5634765625	38.35068130493164	149.2031707763672	-712.7467651367188	42.01256942749023	178.1692352294922	-719.91162109375	33.24133682250977	68.48166656494141	-915.744873046875	35.18928146362305	124.1680908203125	-592.2403564453125	529.2401123046875	324.7573852539062	-667.2395629882812	811.322998046875	339.1410522460938	-619.25048828125	47.95155715942383	344.2033081054688	-571.0709838867188	383.0364685058594	326.3415832519531	-405.4482116699219	85.19296264648438	315.7873229980469	-463.8190002441406	70.70062255859375	270.7835693359375	-491.8376770019531	63.27867889404297	370.87060546875	-669.2271728515625	31.70342063903809	286.7755737304688	
